<svg width="645" height="548" viewBox="0 0 645 548" fill="none" xmlns="http://www.w3.org/2000/svg">
<path d="M272 300.491C272 321.286 292.741 343.777 323.402 343.777C354.062 343.777 373 321.415 373 296.884C373 278.848 363.081 246.384 363.081 246.384C363.081 246.384 360.659 253.546 357.67 257.205C354.816 260.698 348.652 264.42 348.652 264.42C348.652 264.42 342.231 246.23 336.929 234.661C331.351 222.491 314.384 204 314.384 204C314.384 204 315.672 222.938 310.777 240.071C305.881 257.205 296.348 268.027 296.348 268.027C296.348 268.027 290.938 265.851 286.429 259.911C282.989 255.379 281.018 246.384 281.018 246.384C281.018 246.384 272 279.696 272 300.491Z" fill="#FFCAB6" stroke="#F76E3A" stroke-width="8" stroke-linecap="round" stroke-linejoin="round"/>
<path d="M299.053 303.144C299.054 312.267 308.683 322.134 322.919 322.134C337.154 322.134 345.946 312.323 345.946 301.562C345.946 293.649 341.341 279.407 341.341 279.407C341.341 279.407 340.216 282.549 338.829 284.154C337.504 285.686 334.642 287.319 334.642 287.319C334.642 287.319 331.661 279.339 329.199 274.264C326.609 268.925 318.732 260.812 318.732 260.812C318.732 260.812 318.732 271.099 317.057 276.637C315.437 281.994 310.358 288.902 310.358 288.902C310.358 288.902 307.846 287.947 305.752 285.341C304.155 283.353 303.24 279.407 303.24 279.407C303.24 279.407 299.053 294.021 299.053 303.144Z" fill="#FFDEAB" stroke="#FAB44A" stroke-width="8" stroke-linecap="round" stroke-linejoin="round"/>
</svg>
