<svg width="645" height="548" viewBox="0 0 645 548" fill="none" xmlns="http://www.w3.org/2000/svg">
<path d="M314.872 4C361.437 4.0002 400.864 36.9078 412.867 82.043L413.742 85.332L417.129 84.9951C428.088 83.9047 438.259 86.2881 446.389 92.3477C456.05 99.549 461.559 111.01 462.587 124.582L462.814 127.581L465.759 128.195C496.342 134.571 517 154.282 517 176.057C517 189.32 509.458 201.71 496.496 210.942C483.542 220.168 465.44 226 445.261 226C426.876 226 410.203 221.157 397.58 213.307L396.279 212.497L394.77 212.765C383.044 214.842 372.009 213.081 363.158 207.291L361.22 206.022L359.154 207.073C345.766 213.883 330.747 217.701 314.872 217.701C286.05 217.701 259.999 205.114 241.455 184.817L237.453 180.438L234.894 185.789C225.89 204.614 206.325 217.701 183.591 217.701C152.254 217.701 127 192.87 127 162.423C127 131.976 152.254 107.145 183.591 107.145C192.144 107.145 200.242 108.996 207.497 112.304L213.043 114.832L213.155 108.738C214.23 50.5269 259.527 4 314.872 4Z" fill="#93ACDE" stroke="#567CBF" stroke-width="8"/>
<path d="M363.125 326C355 346.62 355 346.62 355 355C355 363.38 371.003 362.88 371.003 355C371.003 347.12 371.003 346.62 363.125 326Z" fill="#93ACDE" stroke="#567CBF" stroke-width="8"/>
<path d="M214.125 309C206 329.62 206 329.62 206 338C206 346.38 222.003 345.88 222.003 338C222.003 330.12 222.003 329.62 214.125 309Z" fill="#93ACDE" stroke="#567CBF" stroke-width="8"/>
<path d="M288.125 258C280 278.62 280 278.62 280 287C280 295.38 296.003 294.88 296.003 287C296.003 279.12 296.003 278.62 288.125 258Z" fill="#93ACDE" stroke="#567CBF" stroke-width="8"/>
<path d="M445.125 281C437 301.62 437 301.62 437 310C437 318.38 453.003 317.88 453.003 310C453.003 302.12 453.003 301.62 445.125 281Z" fill="#93ACDE" stroke="#567CBF" stroke-width="8"/>
<path d="M363 237L363 288" stroke="#567CBF" stroke-width="8" stroke-linecap="round"/>
<path d="M214 237L214 281" stroke="#567CBF" stroke-width="8" stroke-linecap="round"/>
</svg>
